<svg id="Layer_1" data-name="Layer 1" xmlns="http://www.w3.org/2000/svg" viewBox="0 0 726 164"><defs><style>.cls-1{fill:none;}</style></defs><title>balancerlogo-freelogovectors.net</title><g id="pebbles-thick"><path id="peb-bot" d="M65.52,387.27A133.54,133.54,0,0,0,97.74,391,133.6,133.6,0,0,0,130,387.27c21.52,3.86,36.16,11.46,36.16,20.2,0,12.64-30.61,22.89-68.38,22.89s-68.39-10.25-68.39-22.89C29.35,398.73,44,391.13,65.52,387.27Z" transform="translate(-12 -293)"/><path id="peb-med" d="M73.76,350.2a101.51,101.51,0,0,0,24,2.72,101.57,101.57,0,0,0,24-2.72c18.28,2.95,30.88,9.17,30.88,16.37,0,10.05-24.56,18.2-54.86,18.2s-54.86-8.15-54.86-18.2C42.88,359.37,55.48,353.15,73.76,350.2Z" transform="translate(-12 -293)"/><g id="peb-top"><ellipse id="peb-sm" cx="85.99" cy="40.42" rx="41.08" ry="13.78"/></g></g><path id="Balancer" d="M204.72,420.57V325h30.47a58.48,58.48,0,0,1,15.17,1.73,29.45,29.45,0,0,1,10.47,4.94,19.39,19.39,0,0,1,6.07,7.84,26.46,26.46,0,0,1,2,10.43,21.2,21.2,0,0,1-1.1,6.8,19.63,19.63,0,0,1-3.33,6.07,23.32,23.32,0,0,1-5.61,5,31.29,31.29,0,0,1-7.9,3.61q10.47,2.06,15.81,7.53t5.33,14.41a26.87,26.87,0,0,1-2.23,11.07,23.73,23.73,0,0,1-6.54,8.6,30.53,30.53,0,0,1-10.53,5.57,47.41,47.41,0,0,1-14.24,2ZM217.65,377V410.3h20.68a31.55,31.55,0,0,0,9.5-1.26,17.9,17.9,0,0,0,6.54-3.57,13.82,13.82,0,0,0,3.76-5.47,19.5,19.5,0,0,0,1.2-7,14.34,14.34,0,0,0-5.23-11.7q-5.23-4.31-15.84-4.3Zm0-9.21h17.08a33.19,33.19,0,0,0,9.47-1.2,19.19,19.19,0,0,0,6.63-3.33,13,13,0,0,0,3.9-5.17,16.92,16.92,0,0,0,1.27-6.63q0-8.42-5.07-12.34t-15.74-3.94H217.65Zm123.21,52.75h-5.27a6.24,6.24,0,0,1-2.8-.53,2.94,2.94,0,0,1-1.4-2.27l-1.33-6.27c-1.78,1.61-3.52,3-5.21,4.31a29.89,29.89,0,0,1-5.33,3.2,27.86,27.86,0,0,1-6,2,33.84,33.84,0,0,1-7,.67,24.1,24.1,0,0,1-7.37-1.1,16.71,16.71,0,0,1-6-3.3,15.71,15.71,0,0,1-4-5.57,19.44,19.44,0,0,1-1.5-8,14.92,14.92,0,0,1,2.2-7.7,19.34,19.34,0,0,1,7.11-6.57,46.1,46.1,0,0,1,12.83-4.7,98.18,98.18,0,0,1,19.41-2.1v-5.27q0-7.87-3.37-11.9t-10-4a21.21,21.21,0,0,0-7.3,1.1,28.31,28.31,0,0,0-5.14,2.47c-1.44.91-2.69,1.73-3.73,2.47a5.4,5.4,0,0,1-3.1,1.1,3.51,3.51,0,0,1-2.1-.64,4.87,4.87,0,0,1-1.44-1.56l-2.13-3.8A38.54,38.54,0,0,1,303,354.49a37.23,37.23,0,0,1,14.34-2.67,25.51,25.51,0,0,1,10.07,1.87,20.65,20.65,0,0,1,7.4,5.2,22.11,22.11,0,0,1,4.54,8.07,33.63,33.63,0,0,1,1.53,10.4Zm-30.81-7.26a24.42,24.42,0,0,0,5.74-.64,22.59,22.59,0,0,0,4.9-1.8,26.29,26.29,0,0,0,4.4-2.83,37.92,37.92,0,0,0,4.1-3.8V390.16a98.24,98.24,0,0,0-13.94,1.31,38.27,38.27,0,0,0-9.33,2.7,13,13,0,0,0-5.24,3.93,8.45,8.45,0,0,0-1.63,5.07,11.31,11.31,0,0,0,.86,4.6,8.72,8.72,0,0,0,2.34,3.17,9.26,9.26,0,0,0,3.47,1.8A15.69,15.69,0,0,0,310.05,413.31Zm64.12-91v98.23H362.3V322.34Zm72.66,98.23h-5.27a6.21,6.21,0,0,1-2.8-.53,2.94,2.94,0,0,1-1.4-2.27L436,411.5c-1.78,1.61-3.51,3-5.2,4.31a30.62,30.62,0,0,1-5.33,3.2,27.86,27.86,0,0,1-6,2,33.87,33.87,0,0,1-7,.67,24.15,24.15,0,0,1-7.37-1.1,16.71,16.71,0,0,1-6-3.3,15.68,15.68,0,0,1-4-5.57,19.44,19.44,0,0,1-1.5-8,14.83,14.83,0,0,1,2.2-7.7,19.3,19.3,0,0,1,7.1-6.57,46.3,46.3,0,0,1,12.84-4.7,98.18,98.18,0,0,1,19.41-2.1v-5.27q0-7.87-3.37-11.9t-10-4a21.17,21.17,0,0,0-7.3,1.1,28.31,28.31,0,0,0-5.14,2.47c-1.44.91-2.69,1.73-3.73,2.47a5.43,5.43,0,0,1-3.1,1.1,3.56,3.56,0,0,1-2.11-.64,4.84,4.84,0,0,1-1.43-1.56l-2.13-3.8A38.43,38.43,0,0,1,409,354.49a37.23,37.23,0,0,1,14.34-2.67,25.54,25.54,0,0,1,10.07,1.87,20.65,20.65,0,0,1,7.4,5.2,22,22,0,0,1,4.53,8.07,33.62,33.62,0,0,1,1.54,10.4ZM416,413.31a24.27,24.27,0,0,0,5.73-.64,22.21,22.21,0,0,0,4.9-1.8,25.89,25.89,0,0,0,4.4-2.83,38,38,0,0,0,4.11-3.8V390.16a98.1,98.1,0,0,0-13.94,1.31,38.23,38.23,0,0,0-9.34,2.7,13,13,0,0,0-5.23,3.93,8.46,8.46,0,0,0-1.64,5.07,11.14,11.14,0,0,0,.87,4.6,8.81,8.81,0,0,0,2.33,3.17,9.33,9.33,0,0,0,3.47,1.8A15.82,15.82,0,0,0,416,413.31Zm50.91,7.26V353H474a3,3,0,0,1,3.2,2.47l.94,7.33A38,38,0,0,1,488,355a25.62,25.62,0,0,1,12.57-3,24.26,24.26,0,0,1,9.77,1.84,18.77,18.77,0,0,1,7.07,5.2,22.91,22.91,0,0,1,4.3,8.1,35.23,35.23,0,0,1,1.47,10.47v43H511.28v-43q0-7.67-3.5-11.9t-10.7-4.24a19.93,19.93,0,0,0-9.84,2.54,32.37,32.37,0,0,0-8.44,6.87v49.74ZM589.27,365a5.16,5.16,0,0,1-1.07,1.14,2.54,2.54,0,0,1-1.53.4,3.8,3.8,0,0,1-2.17-.84,33.73,33.73,0,0,0-3-1.83,24.58,24.58,0,0,0-4.37-1.83,23.09,23.09,0,0,0-15,.93,16.93,16.93,0,0,0-6.37,5.1,23.12,23.12,0,0,0-3.87,8.07,40.33,40.33,0,0,0-1.3,10.6,38.93,38.93,0,0,0,1.4,10.91,23.75,23.75,0,0,0,3.94,8,16.65,16.65,0,0,0,6.17,4.93,18.92,18.92,0,0,0,8.16,1.71,20.88,20.88,0,0,0,7.14-1,21.61,21.61,0,0,0,4.67-2.3,33.89,33.89,0,0,0,3.07-2.3,3.68,3.68,0,0,1,2.4-1,2.48,2.48,0,0,1,2.26,1.13l3.34,4.33a25.66,25.66,0,0,1-11,7.91,39.22,39.22,0,0,1-13.94,2.5,29.41,29.41,0,0,1-11.77-2.34,26.8,26.8,0,0,1-9.44-6.76,32.1,32.1,0,0,1-6.3-10.91,43.9,43.9,0,0,1-2.3-14.74,44.41,44.41,0,0,1,2.1-13.93,31.56,31.56,0,0,1,6.13-11,28,28,0,0,1,10-7.24A33.71,33.71,0,0,1,570.2,352a32.2,32.2,0,0,1,12.54,2.3,30.14,30.14,0,0,1,9.67,6.51ZM634.32,352a30.07,30.07,0,0,1,11.2,2,25,25,0,0,1,8.87,5.87,26.71,26.71,0,0,1,5.84,9.46,36.63,36.63,0,0,1,2.1,12.84,7.78,7.78,0,0,1-.6,3.74,2.5,2.5,0,0,1-2.27.93h-45A37.25,37.25,0,0,0,616.25,398a22.65,22.65,0,0,0,4.4,7.9,17.53,17.53,0,0,0,6.67,4.73,22.74,22.74,0,0,0,8.67,1.57,25.45,25.45,0,0,0,7.7-1,37.2,37.2,0,0,0,5.57-2.24,43.79,43.79,0,0,0,3.9-2.23,5.13,5.13,0,0,1,2.7-1,2.61,2.61,0,0,1,2.27,1.13l3.33,4.33a22.46,22.46,0,0,1-5.27,4.64,32.34,32.34,0,0,1-6.57,3.23,40.89,40.89,0,0,1-7.23,1.9,43.44,43.44,0,0,1-7.4.64,34.36,34.36,0,0,1-12.91-2.37,28.34,28.34,0,0,1-10.2-6.94,31.71,31.71,0,0,1-6.7-11.3,46,46,0,0,1-2.41-15.47,39.47,39.47,0,0,1,2.17-13.2,31.25,31.25,0,0,1,6.24-10.64,28.68,28.68,0,0,1,9.93-7.07A32.7,32.7,0,0,1,634.32,352Zm.27,8.74q-8.61,0-13.54,5t-6.14,13.77h36.75a23.91,23.91,0,0,0-1.14-7.57,16.77,16.77,0,0,0-3.33-5.94,15,15,0,0,0-5.37-3.86A17.93,17.93,0,0,0,634.59,360.69Zm45,59.88V353h6.8a3.76,3.76,0,0,1,2.67.73,4.61,4.61,0,0,1,1,2.54l.8,10.53a30.73,30.73,0,0,1,8.57-11,20.2,20.2,0,0,1,17-3.34,17.75,17.75,0,0,1,4.21,1.77l-1.54,8.87a2,2,0,0,1-2.07,1.67,10.15,10.15,0,0,1-2.86-.64,18.21,18.21,0,0,0-5.41-.63,15.31,15.31,0,0,0-10.37,3.6,27,27,0,0,0-7,10.47v43Z" transform="translate(-12 -293)"/><rect class="cls-1" width="726" height="164"/></svg>